<svg width="157" height="49" viewBox="0 0 157 49" fill="none" xmlns="http://www.w3.org/2000/svg">
<path d="M17.9612 20.201C21.4205 20.201 24.2248 17.3967 24.2248 13.9374C24.2248 10.4781 21.4205 7.67383 17.9612 7.67383C14.5019 7.67383 11.6976 10.4781 11.6976 13.9374C11.6976 17.3967 14.5019 20.201 17.9612 20.201Z" fill="#4D96D6"/>
<path d="M17.9612 43.5965C21.4205 43.5965 24.2248 40.7922 24.2248 37.3329C24.2248 33.8736 21.4205 31.0693 17.9612 31.0693C14.5019 31.0693 11.6976 33.8736 11.6976 37.3329C11.6976 40.7922 14.5019 43.5965 17.9612 43.5965Z" fill="#CA85AF"/>
<path d="M29.6588 31.8988C33.1181 31.8988 35.9224 29.0945 35.9224 25.6352C35.9224 22.1759 33.1181 19.3716 29.6588 19.3716C26.1995 19.3716 23.3952 22.1759 23.3952 25.6352C23.3952 29.0945 26.1995 31.8988 29.6588 31.8988Z" fill="#505FA7"/>
<path d="M6.2636 31.8988C9.72289 31.8988 12.5272 29.0945 12.5272 25.6352C12.5272 22.1759 9.72289 19.3716 6.2636 19.3716C2.80431 19.3716 0 22.1759 0 25.6352C0 29.0945 2.80431 31.8988 6.2636 31.8988Z" fill="#D37D21"/>
<path d="M44.9444 45.504C45.3178 46.147 45.8155 46.6448 46.417 46.9559C47.0185 47.267 47.7029 47.4329 48.4703 47.4329C48.9473 47.4329 49.4036 47.3707 49.8184 47.2255C50.2332 47.0803 50.6066 46.8729 50.9177 46.624C51.2288 46.3544 51.4777 46.0433 51.6643 45.67C51.851 45.2966 51.934 44.8818 51.934 44.4255C51.934 43.8863 51.8303 43.4507 51.6021 43.0982C51.374 42.7456 51.0836 42.4552 50.7103 42.2478C50.3369 42.0197 49.9014 41.833 49.4451 41.6671C48.9681 41.5011 48.491 41.356 47.9933 41.19C47.4955 41.0241 47.0185 40.8582 46.5415 40.6508C46.0644 40.4434 45.6496 40.1945 45.2763 39.8627C44.903 39.5308 44.5919 39.1367 44.3844 38.639C44.1563 38.1412 44.0526 37.5397 44.0526 36.8138C44.0526 36.1294 44.177 35.5279 44.4467 35.0094C44.7163 34.4909 45.0689 34.0346 45.5252 33.682C45.9815 33.3294 46.5 33.0598 47.1014 32.8731C47.7029 32.6865 48.3251 32.6035 48.9681 32.6035C49.7977 32.6035 50.5858 32.7487 51.291 33.0391C52.0169 33.3294 52.6184 33.8272 53.1576 34.5324L51.9132 35.4242C51.5606 34.9264 51.1251 34.5324 50.6481 34.2835C50.171 34.0346 49.5903 33.9102 48.9266 33.9102C48.4703 33.9102 48.014 33.9724 47.5992 34.0968C47.1844 34.2213 46.8111 34.4079 46.5 34.6361C46.1889 34.885 45.94 35.1753 45.7533 35.5279C45.5666 35.8805 45.4629 36.316 45.4629 36.8138C45.4629 37.5812 45.6496 38.1619 46.0437 38.5768C46.4377 38.9916 46.9148 39.3234 47.5162 39.5515C48.097 39.8004 48.7399 40.0078 49.4244 40.1738C50.1088 40.3604 50.7518 40.5886 51.3325 40.8997C51.9132 41.2108 52.411 41.6256 52.805 42.1648C53.1991 42.7041 53.3858 43.4507 53.3858 44.4048C53.3858 45.0892 53.2613 45.7114 52.9917 46.2507C52.7221 46.7899 52.3902 47.2462 51.934 47.5988C51.4777 47.9514 50.9799 48.2418 50.3992 48.4284C49.8184 48.6151 49.217 48.7188 48.5948 48.7188C47.5785 48.7188 46.6452 48.5321 45.7948 48.1796C44.9444 47.827 44.2185 47.2255 43.5963 46.3959L44.9652 45.4833L44.9444 45.504Z" fill="black"/>
<path d="M55.605 40.651C55.605 39.4896 55.7916 38.4111 56.1857 37.4155C56.5798 36.4407 57.119 35.5904 57.8035 34.8645C58.4879 34.1385 59.3383 33.5785 60.3131 33.1845C61.2879 32.7904 62.3664 32.583 63.5278 32.583C64.6893 32.583 65.7678 32.7904 66.7426 33.1845C67.7174 33.5993 68.547 34.1593 69.2522 34.8645C69.9366 35.5904 70.4966 36.42 70.8699 37.4155C71.264 38.3903 71.4507 39.4688 71.4507 40.651C71.4507 41.8332 71.264 42.9117 70.8699 43.8865C70.4758 44.8821 69.9366 45.7324 69.2522 46.4376C68.5677 47.1428 67.7174 47.7028 66.7426 48.1176C65.7678 48.5116 64.6893 48.719 63.5278 48.719C62.3664 48.719 61.2879 48.5116 60.3131 48.1176C59.3383 47.7235 58.5086 47.1635 57.8035 46.4376C57.0983 45.7117 56.559 44.8613 56.1857 43.8865C55.7916 42.891 55.605 41.8125 55.605 40.651ZM57.0361 40.651C57.0361 41.6051 57.1813 42.4969 57.4924 43.3265C57.8035 44.1562 58.239 44.8613 58.799 45.4835C59.359 46.1058 60.0434 46.562 60.8523 46.9146C61.6612 47.2672 62.553 47.4331 63.5486 47.4331C64.5441 47.4331 65.4567 47.2672 66.2448 46.9146C67.0537 46.562 67.7381 46.085 68.2981 45.4835C68.8581 44.8821 69.2937 44.1562 69.6048 43.3265C69.9159 42.4969 70.061 41.6051 70.061 40.651C70.061 39.697 69.9159 38.8051 69.6048 37.9755C69.2937 37.1459 68.8581 36.4407 68.2981 35.8185C67.7381 35.217 67.0537 34.74 66.2448 34.3874C65.4359 34.0348 64.5441 33.8689 63.5486 33.8689C62.553 33.8689 61.6404 34.0348 60.8523 34.3874C60.0642 34.74 59.359 35.217 58.799 35.8185C58.239 36.42 57.8035 37.1459 57.4924 37.9755C57.1813 38.8051 57.0361 39.697 57.0361 40.651Z" fill="black"/>
<path d="M74.7069 32.9771H83.9156V34.2837H76.138V39.7592H83.3557V41.0658H76.138V48.3664H74.7069V32.9978V32.9771Z" fill="black"/>
<path d="M90.1793 34.2837H84.9319V32.9771H96.8784V34.2837H91.6311V48.3457H90.2V34.2837H90.1793Z" fill="black"/>
<path d="M97.231 32.9771H98.7036L102.52 46.5828H102.561L106.44 32.9771H108.265L112.143 46.5828H112.185L116.001 32.9771H117.474L112.994 48.3457H111.231L107.352 34.6778H107.311L103.432 48.3457H101.669L97.1895 32.9771H97.231Z" fill="black"/>
<path d="M124.028 32.9771H125.5L131.971 48.3457H130.374L128.694 44.2598H120.564L118.822 48.3457H117.328L124.028 32.9771ZM124.691 34.5326L121.103 42.9532H128.155L124.691 34.5326Z" fill="black"/>
<path d="M134.19 32.9771H138.235C138.442 32.9771 138.712 32.9771 139.064 32.9978C139.417 33.0185 139.79 33.06 140.184 33.1222C140.599 33.1845 140.993 33.3089 141.429 33.4748C141.844 33.6407 142.217 33.8689 142.549 34.1593C142.881 34.4496 143.15 34.8437 143.378 35.3C143.586 35.7563 143.71 36.337 143.71 37.0007C143.71 37.7473 143.586 38.3488 143.337 38.8258C143.088 39.3029 142.756 39.6969 142.383 39.9873C142.01 40.2777 141.574 40.5058 141.118 40.651C140.661 40.7962 140.205 40.8999 139.79 40.9621L144.27 48.3457H142.652L138.338 41.0451H135.663V48.3457H134.232V32.9771H134.19ZM135.621 39.7592H138.65C139.396 39.7592 140.018 39.6555 140.475 39.4688C140.952 39.2821 141.304 39.054 141.574 38.7844C141.844 38.5147 142.01 38.2036 142.113 37.8925C142.217 37.5814 142.258 37.2911 142.258 37.0214C142.258 36.7518 142.217 36.4822 142.113 36.1503C142.01 35.8392 141.844 35.5281 141.574 35.2585C141.304 34.9889 140.952 34.7607 140.475 34.5741C139.998 34.3874 139.396 34.2837 138.65 34.2837H135.621V39.7592Z" fill="black"/>
<path d="M147.049 32.9771H156.445V34.2837H148.481V39.7592H155.947V41.0658H148.481V47.0598H156.797V48.3664H147.049V32.9978V32.9771Z" fill="black"/>
<path d="M87.2549 18.2929C88.5201 17.7952 89.6193 17.1315 90.5734 16.2604C91.5274 15.3893 92.2741 14.3937 92.8341 13.253C93.3941 12.1123 93.6637 10.8886 93.6637 9.60271C93.6637 8.06792 93.3318 6.69906 92.6889 5.51685C92.0459 4.33465 91.2163 3.35985 90.2208 2.59246C89.2252 1.82506 88.1053 1.24433 86.8608 0.850263C85.6164 0.456195 84.4135 0.269531 83.252 0.269531H74.7899V3.00726H84.2061C85.0772 3.00726 85.886 3.17319 86.6949 3.54652C87.483 3.8991 88.1882 4.37613 88.8104 4.95686C89.4326 5.53759 89.9097 6.24277 90.283 7.0309C90.6563 7.81904 90.843 8.66939 90.843 9.58197C90.843 10.5775 90.6356 11.4693 90.2415 12.2782C89.8267 13.0871 89.3082 13.7715 88.686 14.3523C88.043 14.933 87.3379 15.3893 86.5497 15.7004C85.7616 16.0115 84.9942 16.1774 84.2268 16.1774H74.8107V20.3255L87.9808 28.4765H93.6844L78.1084 19.0189H83.2727C84.6623 19.0189 85.9897 18.77 87.2549 18.2722V18.2929Z" fill="black"/>
<path d="M156.652 28.5181L142.03 0.124512H139.687L125.044 28.5181H128.798L140.91 4.45926L147.091 16.2605H140.952L140.931 19.019H148.543L153.521 28.5181H156.652Z" fill="black"/>
<path d="M56.7458 0.14502C48.9266 0.14502 42.5593 6.51232 42.5593 14.3315C42.5593 22.1506 48.9266 28.5179 56.7458 28.5179C64.5649 28.5179 70.9322 22.1506 70.9322 14.3315C70.9322 6.51232 64.5649 0.14502 56.7458 0.14502ZM56.7458 25.7594C50.4407 25.7594 45.3178 20.6365 45.3178 14.3315C45.3178 8.02637 50.4407 2.90349 56.7458 2.90349C63.0508 2.90349 68.1737 8.02637 68.1737 14.3315C68.1737 20.6365 63.0508 25.7594 56.7458 25.7594Z" fill="black"/>
<path d="M110.733 16.2605V19.019H119.278V25.6766H110.692C109.281 25.6974 107.871 25.4277 106.502 24.8885C105.112 24.3285 103.889 23.5611 102.81 22.5448C101.732 21.5493 100.861 20.3463 100.218 18.936C99.554 17.5256 99.2221 15.9701 99.2221 14.2901C99.2221 12.6102 99.5332 11.0754 100.176 9.66503C100.798 8.25468 101.649 7.05174 102.727 6.0562C103.806 5.06066 105.009 4.27252 106.398 3.69179C107.788 3.1318 109.219 2.84144 110.712 2.84144V0C108.348 0 106.295 0.435549 104.532 1.30665C102.769 2.17774 101.275 3.29772 100.093 4.68733C98.911 6.07694 97.9984 7.61173 97.3969 9.2917C96.7955 10.9717 96.4844 12.6516 96.4844 14.2694C96.4844 16.0946 96.7333 17.7123 97.231 19.1227C97.7288 20.533 98.3717 21.7774 99.1806 22.8352C99.9895 23.8929 100.902 24.7848 101.918 25.5107C102.935 26.2366 103.972 26.8173 105.029 27.2529C106.087 27.6884 107.124 28.0203 108.099 28.207C109.095 28.3936 109.966 28.4973 110.712 28.4973H122.14V16.219H122.037H110.733V16.2605Z" fill="black"/>
</svg>
